<svg width="100" height="100" viewBox="0 0 100 100" fill="none" xmlns="http://www.w3.org/2000/svg">
<g clip-path="url(#clip0_86_565)">
<path d="M99.5194 81.3103L99.9167 29.4765C99.9686 22.6971 96.5826 16.3529 90.9215 12.6227L77.3672 3.69154C73.7317 1.29611 69.414 0.152354 65.0694 0.433929L14.0299 3.74187C6.13879 4.2533 0 10.8028 0 18.7105V68.4363C0 73.0567 1.59975 77.5346 4.52742 81.1091L15.1537 94.083C18.1981 97.8 22.8388 99.8337 27.6352 99.5528L85.3969 96.1697C93.2826 95.7078 99.4588 89.2093 99.5194 81.3103Z" fill="white"/>
<path fill-rule="evenodd" clip-rule="evenodd" d="M61.2778 10.1825L15.0291 13.452C11.298 13.7607 10 16.0942 10 18.8908V67.416C10 69.5942 10.8082 71.4581 12.7582 73.9492L23.6298 87.4788C25.4159 89.6571 27.0399 90.1242 30.4501 89.969L84.1576 86.8572C88.6986 86.5476 90 84.5238 90 81.1032V26.512C90 24.7441 89.2703 24.2345 87.1223 22.7258L71.9905 12.5152C68.419 10.0298 66.9589 9.71537 61.2778 10.1817V10.1825ZM31.6645 25.6184C27.279 25.9008 26.2843 25.9648 23.7936 24.0265L17.4614 19.206C16.8178 18.582 17.1413 17.8037 18.7628 17.6485L63.2227 14.5391C66.9563 14.2271 68.9005 15.4726 70.3607 16.5606L77.9859 21.8483C78.3118 22.0058 79.1226 22.9362 78.1472 22.9362L32.2329 25.5816L31.6645 25.6184ZM26.5518 80.6368V34.2931C26.5518 32.2692 27.2012 31.3357 29.1454 31.1789L81.8808 28.2239C83.6695 28.0695 84.4777 29.1574 84.4777 31.1781V77.213C84.4777 79.2369 84.1517 80.9488 81.2322 81.1032L30.7677 83.903C27.8482 84.0574 26.5526 83.127 26.5526 80.6368H26.5518Z" fill="#1F1F1F"/>
</g>
<defs>
<clipPath id="clip0_86_565">
<rect width="100" height="100" fill="white"/>
</clipPath>
</defs>
</svg>
