<svg width="502" height="500" viewBox="0 0 502 500" fill="none" xmlns="http://www.w3.org/2000/svg">
<path fill-rule="evenodd" clip-rule="evenodd" d="M1.37916 229.019H500.62C501.195 235.937 501.49 242.934 501.49 250.001C501.49 304 484.323 354.005 455.145 394.881H46.8531C17.6733 354.005 0.509277 304 0.509277 250.001C0.509277 242.934 0.802923 235.937 1.37916 229.019Z" fill="#1F1F1F"/>
<path d="M66.2572 146.757H106.485V105.779H66.2572V146.757Z" stroke="#E6E6E6" stroke-width="0.288" stroke-miterlimit="22.926"/>
<path fill-rule="evenodd" clip-rule="evenodd" d="M65.7047 146.79H106.921V105.207H65.7047V146.79Z" fill="#E6E6E6"/>
<path fill-rule="evenodd" clip-rule="evenodd" d="M148.618 146.788H189.835V106.442H148.618V146.788Z" fill="#E6E6E6"/>
<path fill-rule="evenodd" clip-rule="evenodd" d="M231.15 146.788H272.366V106.442H231.15V146.788Z" fill="#E6E6E6"/>
<path fill-rule="evenodd" clip-rule="evenodd" d="M312.911 146.788H354.127V106.442H312.911V146.788Z" fill="#E6E6E6"/>
<path fill-rule="evenodd" clip-rule="evenodd" d="M253.341 311.602H249.669V188.765H253.341V311.602Z" fill="#E6E6E6"/>
<path fill-rule="evenodd" clip-rule="evenodd" d="M67.6118 347.807H71.5397V271.213H67.6118V347.807Z" fill="#E6E6E6"/>
<path fill-rule="evenodd" clip-rule="evenodd" d="M76.8963 347.807H80.8242V271.213H76.8963V347.807Z" fill="#E6E6E6"/>
<path fill-rule="evenodd" clip-rule="evenodd" d="M86.1809 347.807H90.1088V271.213H86.1809V347.807Z" fill="#E6E6E6"/>
<path fill-rule="evenodd" clip-rule="evenodd" d="M95.4639 347.807H99.3918V271.213H95.4639V347.807Z" fill="#E6E6E6"/>
<path fill-rule="evenodd" clip-rule="evenodd" d="M104.748 347.807H108.676V271.213H104.748V347.807Z" fill="#E6E6E6"/>
<path fill-rule="evenodd" clip-rule="evenodd" d="M114.031 347.807H117.959V271.213H114.031V347.807Z" fill="#E6E6E6"/>
<path fill-rule="evenodd" clip-rule="evenodd" d="M123.316 347.807H127.244V271.213H123.316V347.807Z" fill="#E6E6E6"/>
<path fill-rule="evenodd" clip-rule="evenodd" d="M132.601 347.807H136.528V271.213H132.601V347.807Z" fill="#E6E6E6"/>
<path fill-rule="evenodd" clip-rule="evenodd" d="M141.885 347.807H145.813V271.213H141.885V347.807Z" fill="#E6E6E6"/>
<path fill-rule="evenodd" clip-rule="evenodd" d="M151.168 347.807H155.096V271.213H151.168V347.807Z" fill="#E6E6E6"/>
<path fill-rule="evenodd" clip-rule="evenodd" d="M160.453 347.807H164.381V271.213H160.453V347.807Z" fill="#E6E6E6"/>
<path fill-rule="evenodd" clip-rule="evenodd" d="M169.737 347.807H173.665V271.213H169.737V347.807Z" fill="#E6E6E6"/>
<path fill-rule="evenodd" clip-rule="evenodd" d="M179.02 347.807H182.948V271.213H179.02V347.807Z" fill="#E6E6E6"/>
<path fill-rule="evenodd" clip-rule="evenodd" d="M188.305 347.807H192.233V271.213H188.305V347.807Z" fill="#E6E6E6"/>
<path fill-rule="evenodd" clip-rule="evenodd" d="M197.589 347.807H201.517V271.213H197.589V347.807Z" fill="#E6E6E6"/>
<path fill-rule="evenodd" clip-rule="evenodd" d="M206.874 347.807H210.802V271.213H206.874V347.807Z" fill="#E6E6E6"/>
<path fill-rule="evenodd" clip-rule="evenodd" d="M216.157 347.807H220.085V271.213H216.157V347.807Z" fill="#E6E6E6"/>
<path fill-rule="evenodd" clip-rule="evenodd" d="M225.441 347.807H229.369V271.213H225.441V347.807Z" fill="#E6E6E6"/>
<path fill-rule="evenodd" clip-rule="evenodd" d="M234.726 347.807H238.654V271.213H234.726V347.807Z" fill="#E6E6E6"/>
<path fill-rule="evenodd" clip-rule="evenodd" d="M244.009 347.807H247.937V271.213H244.009V347.807Z" fill="#E6E6E6"/>
<path fill-rule="evenodd" clip-rule="evenodd" d="M253.295 347.807H257.221V271.213H253.295V347.807Z" fill="#E6E6E6"/>
<path fill-rule="evenodd" clip-rule="evenodd" d="M262.576 347.807H266.504V271.213H262.576V347.807Z" fill="#E6E6E6"/>
<path fill-rule="evenodd" clip-rule="evenodd" d="M271.861 347.807H275.789V271.213H271.861V347.807Z" fill="#E6E6E6"/>
<path fill-rule="evenodd" clip-rule="evenodd" d="M281.146 347.807H285.073V271.213H281.146V347.807Z" fill="#E6E6E6"/>
<path fill-rule="evenodd" clip-rule="evenodd" d="M290.43 347.807H294.356V271.213H290.43V347.807Z" fill="#E6E6E6"/>
<path fill-rule="evenodd" clip-rule="evenodd" d="M299.715 347.807H303.641V271.213H299.715V347.807Z" fill="#E6E6E6"/>
<path fill-rule="evenodd" clip-rule="evenodd" d="M308.999 347.807H312.926V271.213H308.999V347.807Z" fill="#E6E6E6"/>
<path fill-rule="evenodd" clip-rule="evenodd" d="M318.282 347.807H322.21V271.213H318.282V347.807Z" fill="#E6E6E6"/>
<path fill-rule="evenodd" clip-rule="evenodd" d="M327.565 347.807H331.493V271.213H327.565V347.807Z" fill="#E6E6E6"/>
<path fill-rule="evenodd" clip-rule="evenodd" d="M336.85 347.807H340.778V271.213H336.85V347.807Z" fill="#E6E6E6"/>
<path fill-rule="evenodd" clip-rule="evenodd" d="M346.134 347.807H350.062V271.213H346.134V347.807Z" fill="#E6E6E6"/>
<path fill-rule="evenodd" clip-rule="evenodd" d="M355.419 347.807H359.345V271.213H355.419V347.807Z" fill="#E6E6E6"/>
<path fill-rule="evenodd" clip-rule="evenodd" d="M364.703 347.807H368.63V271.213H364.703V347.807Z" fill="#E6E6E6"/>
<path fill-rule="evenodd" clip-rule="evenodd" d="M373.988 347.807H377.914V271.213H373.988V347.807Z" fill="#E6E6E6"/>
<path fill-rule="evenodd" clip-rule="evenodd" d="M383.271 347.807H387.199V271.213H383.271V347.807Z" fill="#E6E6E6"/>
<path fill-rule="evenodd" clip-rule="evenodd" d="M392.554 347.807H396.482V271.213H392.554V347.807Z" fill="#E6E6E6"/>
<path fill-rule="evenodd" clip-rule="evenodd" d="M401.838 347.807H405.766V271.213H401.838V347.807Z" fill="#E6E6E6"/>
<path fill-rule="evenodd" clip-rule="evenodd" d="M411.123 347.807H415.049V271.213H411.123V347.807Z" fill="#E6E6E6"/>
<path fill-rule="evenodd" clip-rule="evenodd" d="M420.408 347.807H424.334V271.213H420.408V347.807Z" fill="#E6E6E6"/>
<path fill-rule="evenodd" clip-rule="evenodd" d="M429.692 347.807H433.618V271.213H429.692V347.807Z" fill="#E6E6E6"/>
<path fill-rule="evenodd" clip-rule="evenodd" d="M438.975 347.807H442.903V271.213H438.975V347.807Z" fill="#E6E6E6"/>
<path fill-rule="evenodd" clip-rule="evenodd" d="M106.226 394.792H189.187V354.04H106.226V394.792Z" fill="#383838"/>
<path fill-rule="evenodd" clip-rule="evenodd" d="M189.186 394.792H312.414V354.04H189.186V394.792Z" fill="#696868"/>
<path fill-rule="evenodd" clip-rule="evenodd" d="M312.899 394.792H395.858V354.04H312.899V394.792Z" fill="#E5E5E5"/>
<path fill-rule="evenodd" clip-rule="evenodd" d="M22.7747 146.853H65.4764V229.705H1.32434C3.68929 200.366 11.133 172.459 22.7747 146.853Z" fill="#FFF200"/>
<path fill-rule="evenodd" clip-rule="evenodd" d="M65.7742 146.853H148.328V229.705H65.7742V146.853Z" fill="#00ADEF"/>
<path fill-rule="evenodd" clip-rule="evenodd" d="M148.028 146.853H250.548V229.705H148.028V146.853Z" fill="#99D420"/>
<path fill-rule="evenodd" clip-rule="evenodd" d="M250.55 146.853H354.56V229.705H250.55V146.853Z" fill="#F466BA"/>
<path fill-rule="evenodd" clip-rule="evenodd" d="M354.56 146.853H437.112V229.705H354.56V146.853Z" fill="#ED1C24"/>
<path fill-rule="evenodd" clip-rule="evenodd" d="M437.412 146.853H479.226C490.868 172.459 498.308 200.366 500.672 229.705H437.412V146.853Z" fill="#176FC1"/>
<path fill-rule="evenodd" clip-rule="evenodd" d="M250.772 311.613H271.526V189.169H250.772V311.613Z" fill="#1F1F1F"/>
<path fill-rule="evenodd" clip-rule="evenodd" d="M147.463 436.032H355.591V394.309H147.463V436.032Z" fill="#1F1F1F" stroke="#1F1F1F" stroke-width="0.288" stroke-miterlimit="22.926"/>
<path fill-rule="evenodd" clip-rule="evenodd" d="M46.4496 394.309H146.977V436.032H83.6983C69.7896 423.563 57.2797 409.572 46.4496 394.309Z" fill="#E6E6E6"/>
<path fill-rule="evenodd" clip-rule="evenodd" d="M396.152 354.042H478.817C472.3 368.227 464.494 381.7 455.545 394.309H455.548C444.718 409.572 432.208 423.565 418.3 436.032H355.108V394.309H396.152V354.042Z" fill="#E6E6E6"/>
<path fill-rule="evenodd" clip-rule="evenodd" d="M456.082 106.483H45.9164C91.231 42.0986 166.191 -4.17421e-05 250.999 -4.17421e-05C335.807 -4.17421e-05 410.767 42.0986 456.082 106.483Z" fill="#E6E6E6"/>
<path fill-rule="evenodd" clip-rule="evenodd" d="M227.923 271.726H231.595V228.949H227.923V271.726Z" fill="#E6E6E6"/>
<path d="M74.6798 243.868H81.4463V257.17H74.6798V243.868ZM74.6798 241.566C73.4152 241.566 72.3796 242.6 72.3796 243.868V257.17C72.3796 258.457 73.3679 259.471 74.6798 259.471H81.4463C82.7582 259.471 83.7481 258.457 83.7481 257.17V243.868C83.7481 242.6 82.7124 241.566 81.4463 241.566H74.6798Z" fill="#E6E6E6"/>
<path d="M91.2502 243.868H98.0167V257.17H91.2502V243.868ZM91.2502 241.566C89.9841 241.566 88.9484 242.6 88.9484 243.868V257.17C88.9484 258.457 89.9383 259.471 91.2502 259.471H98.0167C99.3286 259.471 100.318 258.457 100.318 257.17V243.868C100.318 242.6 99.2828 241.566 98.0167 241.566H91.2502Z" fill="#E6E6E6"/>
<path d="M112.033 248.723C112.538 248.723 112.907 248.723 113.229 248.286C113.482 247.941 113.482 247.687 113.482 247.25V245.962C113.482 245.524 113.482 245.27 113.229 244.926C112.907 244.487 112.538 244.487 112.033 244.487H110.375C109.868 244.487 109.5 244.487 109.178 244.926C108.926 245.27 108.926 245.524 108.926 245.962V247.25C108.926 247.687 108.926 247.941 109.178 248.286C109.5 248.723 109.868 248.723 110.375 248.723H112.033ZM112.033 256.547C112.538 256.547 112.907 256.547 113.229 256.111C113.482 255.766 113.482 255.513 113.482 255.074V253.786C113.482 253.349 113.482 253.096 113.229 252.75C112.907 252.313 112.538 252.313 112.033 252.313H110.375C109.868 252.313 109.5 252.313 109.178 252.75C108.926 253.096 108.926 253.349 108.926 253.786V255.074C108.926 255.513 108.926 255.766 109.178 256.111C109.5 256.547 109.868 256.547 110.375 256.547H112.033Z" fill="#E6E6E6"/>
<path d="M124.391 243.868H131.158V257.17H124.391V243.868ZM124.391 241.566C123.125 241.566 122.089 242.6 122.089 243.868V257.17C122.089 258.457 123.079 259.471 124.391 259.471H131.158C132.468 259.471 133.458 258.457 133.458 257.17V243.868C133.458 242.6 132.424 241.566 131.158 241.566H124.391Z" fill="#E6E6E6"/>
<path d="M140.962 243.868H147.728V257.17H140.962V243.868ZM140.962 241.566C139.695 241.566 138.66 242.6 138.66 243.868V257.17C138.66 258.457 139.65 259.471 140.962 259.471H147.726C149.038 259.471 150.028 258.457 150.028 257.17V243.868C150.028 242.6 148.993 241.566 147.726 241.566H140.962Z" fill="#E6E6E6"/>
<path d="M330.004 243.868H336.758V257.17H330.004V243.868ZM330.004 241.566C328.741 241.566 327.707 242.6 327.707 243.868V257.17C327.707 258.457 328.694 259.471 330.004 259.471H336.76C338.068 259.471 339.057 258.457 339.057 257.17V243.868C339.057 242.6 338.023 241.566 336.76 241.566H330.004Z" fill="#E6E6E6"/>
<path d="M346.546 243.868H353.299V257.17H346.546V243.868ZM346.546 241.566C345.282 241.566 344.248 242.6 344.248 243.868V257.17C344.248 258.457 345.236 259.471 346.546 259.471H353.299C354.607 259.471 355.596 258.457 355.596 257.17V243.868C355.596 242.6 354.563 241.566 353.299 241.566H346.546Z" fill="#E6E6E6"/>
<path d="M363.775 249.137C362.833 249.137 362.397 249.505 362.397 250.541C362.397 251.576 362.833 251.944 363.775 251.944H369.151C370.093 251.944 370.529 251.576 370.529 250.541C370.529 249.505 370.093 249.137 369.151 249.137H363.775Z" fill="#E6E6E6"/>
<path d="M379.627 243.868H386.381V257.17H379.627V243.868ZM379.627 241.566C378.363 241.566 377.33 242.6 377.33 243.868V257.17C377.33 258.457 378.317 259.471 379.627 259.471H386.381C387.69 259.471 388.677 258.457 388.677 257.17V243.868C388.677 242.6 387.644 241.566 386.381 241.566H379.627Z" fill="#E6E6E6"/>
<path d="M396.168 243.868H402.921V257.17H396.168V243.868ZM396.168 241.566C394.905 241.566 393.871 242.6 393.871 243.868V257.17C393.871 258.457 394.857 259.471 396.168 259.471H402.921C404.23 259.471 405.219 258.457 405.219 257.17V243.868C405.219 242.6 404.184 241.566 402.921 241.566H396.168Z" fill="#E6E6E6"/>
<path d="M413.397 249.137C412.455 249.137 412.019 249.505 412.019 250.541C412.019 251.576 412.455 251.944 413.397 251.944H418.771C419.715 251.944 420.151 251.576 420.151 250.541C420.151 249.505 419.715 249.137 418.771 249.137H413.397Z" fill="#E6E6E6"/>
<path d="M429.25 243.868H436.004V257.17H429.25V243.868ZM429.25 241.566C427.986 241.566 426.953 242.6 426.953 243.868V257.17C426.953 258.457 427.94 259.471 429.25 259.471H436.004C437.313 259.471 438.301 258.457 438.301 257.17V243.868C438.301 242.6 437.267 241.566 436.004 241.566H429.25Z" fill="#E6E6E6"/>
<path d="M445.789 243.868H452.543V257.17H445.789V243.868ZM445.789 241.566C444.526 241.566 443.492 242.6 443.492 243.868V257.17C443.492 258.457 444.48 259.471 445.789 259.471H452.544C453.853 259.471 454.841 258.457 454.841 257.17V243.868C454.841 242.6 453.807 241.566 452.544 241.566H445.789Z" fill="#E6E6E6"/>
<path fill-rule="evenodd" clip-rule="evenodd" d="M31.6371 271.726H35.3092V228.949H31.6371V271.726Z" fill="#E6E6E6"/>
<path fill-rule="evenodd" clip-rule="evenodd" d="M0.514319 248.63H33.6094V252.301H0.539579C0.531685 251.533 0.509583 250.769 0.509583 250C0.509583 249.543 0.511161 249.086 0.514319 248.63Z" fill="#E6E6E6"/>
<path fill-rule="evenodd" clip-rule="evenodd" d="M466.513 271.726H470.185V228.949H466.513V271.726Z" fill="#E6E6E6"/>
<path fill-rule="evenodd" clip-rule="evenodd" d="M501.486 248.63H468.213V252.301H501.461C501.467 251.535 501.491 250.769 501.491 250C501.491 249.543 501.488 249.086 501.486 248.63Z" fill="#E6E6E6"/>
<path fill-rule="evenodd" clip-rule="evenodd" d="M187.763 271.726H191.435V228.949H187.763V271.726Z" fill="#E6E6E6"/>
<path fill-rule="evenodd" clip-rule="evenodd" d="M271.885 271.726H275.555V228.949H271.885V271.726Z" fill="#E6E6E6"/>
<path fill-rule="evenodd" clip-rule="evenodd" d="M312.081 271.726H315.753V228.949H312.081V271.726Z" fill="#E6E6E6"/>
<path fill-rule="evenodd" clip-rule="evenodd" d="M231.51 311.613H251.299V189.169H231.51V311.613Z" fill="#1F1F1F"/>
<path fill-rule="evenodd" clip-rule="evenodd" d="M188.657 248.628H315.347V252.298H188.657V248.628Z" fill="#E6E6E6"/>
<path fill-rule="evenodd" clip-rule="evenodd" d="M248.718 189.17H252.39V311.768H248.718V189.17Z" fill="#E6E6E6"/>
<path fill-rule="evenodd" clip-rule="evenodd" d="M189.835 106.446H208.303V65.4617H189.334V23.3678H313.647V65.4617H212.324V106.446H231.051V146.789H189.835V106.446Z" fill="#1F1F1F"/>
<path fill-rule="evenodd" clip-rule="evenodd" d="M272.606 146.79H313.822V106.447H272.606V146.79Z" fill="#1F1F1F"/>
<path fill-rule="evenodd" clip-rule="evenodd" d="M229.938 432.151H272.011V499.196C265.219 499.722 258.357 500 251.426 500C244.187 500 237.025 499.691 229.938 499.117V432.151Z" fill="#ED1C24"/>
<path fill-rule="evenodd" clip-rule="evenodd" d="M81.968 432.151H230.909V499.198C173.697 494.664 121.899 470.936 81.968 434.473V432.151Z" fill="#FFF200"/>
<path fill-rule="evenodd" clip-rule="evenodd" d="M271.175 432.151H420.117V434.394C380.195 470.885 328.392 494.634 271.175 499.19V432.151Z" fill="#FFF200"/>
</svg>
