<svg width="100" height="100" viewBox="0 0 100 100" fill="none" xmlns="http://www.w3.org/2000/svg">
<path fill-rule="evenodd" clip-rule="evenodd" d="M61.35 0.227001L6.017 4.314C1.553 4.7 0 7.617 0 11.113V71.773C0 74.496 0.967 76.826 3.3 79.94L16.307 96.853C18.444 99.576 20.387 100.16 24.467 99.966L88.724 96.076C94.157 95.689 95.714 93.159 95.714 88.883V20.64C95.714 18.43 94.841 17.793 92.271 15.907L74.167 3.143C69.894 0.0360005 68.147 -0.356999 61.35 0.226001V0.227001ZM25.92 19.523C20.673 19.876 19.483 19.956 16.503 17.533L8.927 11.507C8.157 10.727 8.544 9.754 10.484 9.56L63.677 5.673C68.144 5.283 70.47 6.84 72.217 8.2L81.34 14.81C81.73 15.007 82.7 16.17 81.533 16.17L26.6 19.477L25.92 19.523ZM19.803 88.3V30.367C19.803 27.837 20.58 26.67 22.906 26.474L86 22.78C88.14 22.587 89.107 23.947 89.107 26.473V84.02C89.107 86.55 88.717 88.69 85.224 88.883L24.847 92.383C21.354 92.576 19.804 91.413 19.804 88.3H19.803Z" fill="#020817"/>
</svg>
